HIERARCHY
ROOT Hips
{
 OFFSET 0.000000 0.000000 0.000000
 CHANNELS 6 Xposition Yposition Zposition Yrotation Xrotation Zrotation
 JOINT Chest
 {
  OFFSET 0.000000 9.585900 0.002600
  CHANNELS 3 Yrotation Xrotation Zrotation
  JOINT Chest2
  {
   OFFSET 0.000000 9.601200 -0.005300
   CHANNELS 3 Yrotation Xrotation Zrotation
   JOINT Chest3
   {
    OFFSET 0.000000 9.561800 0.000000
    CHANNELS 3 Yrotation Xrotation Zrotation
    JOINT Chest4
    {
     OFFSET 0.000000 9.552100 0.000000
     CHANNELS 3 Yrotation Xrotation Zrotation
     JOINT Neck
     {
      OFFSET 0.000000 14.453000 0.000000
      CHANNELS 3 Yrotation Xrotation Zrotation
      JOINT Head
      {
       OFFSET 0.000000 8.936500 -0.011300
       CHANNELS 3 Yrotation Xrotation Zrotation
       End Site
       {
        OFFSET 0.000000 17.073600 -0.006000
       }
      }
     }
     JOINT RightCollar
     {
      OFFSET -2.921100 9.558500 0.000000
      CHANNELS 3 Yrotation Xrotation Zrotation
      JOINT RightShoulder
      {
       OFFSET -13.519700 0.000000 0.000000
       CHANNELS 3 Yrotation Xrotation Zrotation
       JOINT RightElbow
       {
        OFFSET 0.000000 -29.696600 0.000000
        CHANNELS 3 Yrotation Xrotation Zrotation
        JOINT RightWrist
        {
         OFFSET 0.000000 -24.004700 0.000000
         CHANNELS 3 Yrotation Xrotation Zrotation
         End Site
         {
          OFFSET 0.000000 -17.728500 0.000000
         }
        }
       }
      }
     }
     JOINT LeftCollar
     {
      OFFSET 2.921100 9.558500 0.000000
      CHANNELS 3 Yrotation Xrotation Zrotation
      JOINT LeftShoulder
      {
       OFFSET 13.519700 0.000000 0.000000
       CHANNELS 3 Yrotation Xrotation Zrotation
       JOINT LeftElbow
       {
        OFFSET 0.000000 -29.696600 0.000000
        CHANNELS 3 Yrotation Xrotation Zrotation
        JOINT LeftWrist
        {
         OFFSET 0.000000 -24.004700 0.000000
         CHANNELS 3 Yrotation Xrotation Zrotation
         End Site
         {
          OFFSET 0.000000 -17.728500 0.000000
         }
        }
       }
      }
     }
    }
   }
  }
 }
 JOINT RightHip
 {
  OFFSET -7.771700 -0.012900 -0.001300
  CHANNELS 3 Yrotation Xrotation Zrotation
  JOINT RightKnee
  {
   OFFSET 0.000000 -40.869800 0.001200
   CHANNELS 3 Yrotation Xrotation Zrotation
   JOINT RightAnkle
   {
    OFFSET 0.000000 -39.717900 0.002100
    CHANNELS 3 Yrotation Xrotation Zrotation
    JOINT RightToe
    {
     OFFSET 0.000000 -4.965400 11.033500
     CHANNELS 3 Yrotation Xrotation Zrotation
     End Site
     {
      OFFSET 0.000000 -1.423100 5.872300
     }
    }
   }
  }
 }
 JOINT LeftHip
 {
  OFFSET 7.771700 -0.012900 -0.001300
  CHANNELS 3 Yrotation Xrotation Zrotation
  JOINT LeftKnee
  {
   OFFSET 0.000000 -40.869800 0.001200
   CHANNELS 3 Yrotation Xrotation Zrotation
   JOINT LeftAnkle
   {
    OFFSET 0.000000 -39.717900 0.002100
    CHANNELS 3 Yrotation Xrotation Zrotation
    JOINT LeftToe
    {
     OFFSET 0.000000 -4.965400 11.033500
     CHANNELS 3 Yrotation Xrotation Zrotation
     End Site
     {
      OFFSET 0.000000 -1.423100 5.872300
     }
    }
   }
  }
 }
}
MOTION
Frames: 15
Frame Time: 0.008333
9.003974 52.717517 39.618078 172.512433 -36.650777 -1.584230 3.413428 20.693493 1.348009 0.451279 2.730884 0.330363 0.745434 4.456114 0.550938 3.264764 17.619882 2.599061 1.546741 13.104496 0.124294 2.750369 -11.599898 -0.352466 -6.028408 -1.163736 -3.940658 -1.528504 1.026264 6.356879 -107.765015 -80.631450 126.922209 -0.222967 3.113987 -3.515329 -2.883120 0.055558 0.128240 6.447792 -0.317835 2.598450 126.884713 -74.791604 -148.912326 -5.152352 2.409804 5.155925 -3.118352 -44.593388 4.498892 147.151231 85.857606 150.341483 -4.344900 -12.355958 -1.097148 0.247808 0.034901 -0.025348 1.238891 -40.707773 5.487971 73.352314 82.335880 62.517381 -7.517756 -12.745817 9.654152 0.473698 2.325932 0.316595
9.044491 52.692869 39.647703 172.486362 -36.562625 -1.632282 3.492672 20.635287 1.447358 0.455392 2.737766 0.328816 0.728350 4.440894 0.539293 3.331620 17.680338 2.599653 1.529080 13.090762 0.133149 2.795943 -11.528998 -0.349581 -6.001862 -1.222958 -3.908411 -1.551972 1.004738 6.303478 -108.577863 -80.658405 127.701849 -0.164300 3.126951 -3.547831 -2.943582 -0.003632 0.138461 6.431669 -0.347892 2.593567 126.763088 -74.722871 -148.814947 -5.115425 2.279454 5.319822 -3.216328 -44.656597 4.600828 146.150924 85.899309 149.424677 -4.409617 -12.349838 -1.215303 0.328739 0.071330 0.011131 1.267076 -40.771407 5.657488 72.839049 82.376741 61.967703 -7.611104 -12.798859 9.681838 0.473639 2.406252 0.339507
9.073087 52.672194 39.673197 172.452775 -36.499311 -1.602785 3.548723 20.604703 1.467916 0.459459 2.744929 0.327363 0.714540 4.425810 0.529246 3.393625 17.741425 2.599992 1.512416 13.078332 0.141145 2.809087 -11.496559 -0.342458 -5.967639 -1.287259 -3.872436 -1.571099 0.991982 6.241707 -109.393919 -80.689243 128.484214 -0.101257 3.131292 -3.586259 -2.928019 0.022370 0.122571 6.341442 -0.464524 2.603442 126.596799 -74.661579 -148.704165 -5.076934 2.136557 5.533123 -3.214034 -44.733016 4.584422 145.512437 85.898588 148.870502 -4.479776 -12.290006 -1.314706 0.415553 0.038014 0.047300 1.335951 -40.811172 5.722803 72.428242 82.388345 61.510421 -7.708047 -12.798867 9.736747 0.513678 2.427174 0.313071
9.097853 52.658379 39.691576 172.442724 -36.487733 -1.564415 3.576663 20.625124 1.463795 0.463546 2.752119 0.326137 0.744672 4.465688 0.536819 3.355484 17.698938 2.577985 1.541269 13.118521 0.139924 2.807293 -11.483723 -0.334389 -5.882770 -1.303043 -3.845769 -1.586298 0.984400 6.169885 -110.160195 -80.718854 129.219250 -0.036308 3.125515 -3.624041 -2.891200 0.070678 0.107934 6.278550 -0.547453 2.586400 126.274238 -74.564815 -148.435085 -5.102117 2.008341 5.759156 -3.211530 -44.746729 4.535282 145.014440 85.890265 148.417247 -4.460516 -12.266325 -1.372358 0.415009 0.023441 0.072338 1.391110 -40.799028 5.748543 72.085298 82.392792 61.123635 -7.763074 -12.785384 9.748891 0.519384 2.437390 0.335593
9.123747 52.646388 39.710267 172.443245 -36.476150 -1.548421 3.598746 20.641079 1.472867 0.467397 2.758902 0.325028 0.762029 4.488748 0.539225 3.335473 17.676918 2.563875 1.540452 13.119824 0.142401 2.834248 -11.430891 -0.335692 -5.798285 -1.321951 -3.815378 -1.598086 0.981374 6.090942 -110.884801 -80.745036 129.914980 0.021887 3.113728 -3.662251 -2.895231 0.069709 0.107720 6.250057 -0.581468 2.560339 126.063197 -74.502399 -148.260360 -5.081120 1.870521 6.007535 -3.229425 -44.754375 4.508240 144.519600 85.890030 147.967584 -4.437386 -12.244830 -1.428041 0.409852 0.013870 0.068304 1.418599 -40.786783 5.797840 71.731339 82.401701 60.726446 -7.808526 -12.782217 9.735102 0.521813 2.447965 0.366818
9.149872 52.636478 39.728347 172.430875 -36.468414 -1.537282 3.631181 20.657051 1.491594 0.471029 2.765215 0.323716 0.777093 4.509153 0.540289 3.353006 17.684435 2.557917 1.547480 13.145838 0.141310 2.822359 -11.428344 -0.325096 -5.743001 -1.369062 -3.777929 -1.659414 0.979351 6.039080 -111.528273 -80.797480 130.585564 0.072409 3.097027 -3.699704 -2.927612 0.044435 0.112018 6.210343 -0.612443 2.534853 125.976185 -74.451420 -148.191857 -5.031477 1.740995 6.282613 -3.277815 -44.750705 4.459494 143.522341 85.872548 147.056589 -4.399184 -12.222873 -1.537707 0.422150 0.003049 0.071419 1.441184 -40.773460 5.862831 71.393826 82.415242 60.347941 -7.855002 -12.767994 9.744372 0.524560 2.446111 0.371323
9.151821 52.625281 39.745682 172.309728 -36.438479 -1.330255 3.693637 20.653903 1.363607 0.466485 2.758934 0.317665 0.791831 4.530372 0.542244 3.412389 17.741906 2.548807 1.528991 13.131212 0.153199 2.814220 -11.422823 -0.314719 -5.711363 -1.453420 -3.721565 -1.718452 0.981277 5.988582 -112.084175 -80.840764 131.169913 0.122070 3.073373 -3.730424 -2.934862 0.074840 0.118537 6.108955 -0.723660 2.520184 125.981055 -74.388234 -148.209675 -4.985086 1.631642 6.592531 -3.152225 -44.910018 4.279060 143.869021 85.764670 147.476187 -4.552284 -11.900008 -1.668942 0.610758 -0.314155 0.152393 1.659661 -40.778847 5.745939 71.058290 82.423828 59.968154 -7.950220 -12.678242 9.741879 0.602201 2.377617 0.399221
9.174618 52.620023 39.759693 172.281480 -36.448711 -1.311437 3.725622 20.681180 1.373854 0.466383 2.754625 0.314186 0.803338 4.548090 0.541134 3.447974 17.766772 2.538419 1.521953 13.132235 0.160775 2.818312 -11.396747 -0.307950 -5.707692 -1.504926 -3.683217 -1.600908 0.990610 5.871484 -112.556198 -80.791378 131.550593 0.170479 3.045862 -3.756423 -2.953250 0.085884 0.129232 6.048610 -0.773163 2.498632 126.053838 -74.344223 -148.293477 -4.949290 1.527104 6.925643 -3.165526 -44.894316 4.268890 143.527071 85.769835 147.175619 -4.520541 -11.867920 -1.727873 0.605625 -0.338848 0.173348 1.681664 -40.749834 5.810367 70.779858 82.442592 59.648147 -7.977687 -12.648629 9.746330 0.620185 2.334841 0.375296
9.200895 52.619771 39.767930 172.211117 -36.499176 -1.294333 3.796099 20.743126 1.408073 0.480275 2.762139 0.318576 0.802175 4.552639 0.531975 3.455065 17.760203 2.534663 1.540021 13.166280 0.152628 2.801474 -11.410615 -0.290830 -5.671931 -1.520035 -3.661977 -1.560051 0.989622 5.802596 -112.858989 -80.784079 131.840897 0.159770 3.030243 -3.814976 -2.966277 0.082226 0.138038 6.009178 -0.733632 2.459851 126.313149 -74.325443 -148.539661 -4.933865 1.409491 7.266830 -3.171428 -44.836767 4.297069 143.162749 85.775571 146.846227 -4.474079 -11.819294 -1.760735 0.579795 -0.377633 0.153722 1.708665 -40.683060 5.910875 70.530786 82.463082 59.355774 -7.951766 -12.581287 9.748204 0.590156 2.260071 0.366657
9.219070 52.615696 39.779813 172.137775 -36.505704 -1.239572 3.850522 20.755385 1.396838 0.488091 2.786766 0.316828 0.804959 4.538861 0.529666 3.467160 17.761654 2.530828 1.540879 13.172877 0.155395 2.803130 -11.395438 -0.285870 -5.590609 -1.524300 -3.631424 -1.577446 0.980252 5.723732 -113.040745 -80.770772 132.024041 0.157750 3.008983 -3.872381 -2.961532 0.125062 0.133363 5.975816 -0.748480 2.443870 126.627614 -74.201337 -148.926883 -5.021218 1.412178 7.683933 -3.262858 -44.832026 4.335721 142.601080 85.749757 146.252539 -4.436985 -11.764957 -1.821649 0.561380 -0.419792 0.130942 1.763965 -40.658691 5.959629 70.304453 82.482520 59.086365 -7.968051 -12.538096 9.744670 0.595932 2.221186 0.382724
9.238580 52.612615 39.789740 172.063619 -36.518785 -1.198610 3.911433 20.771499 1.400466 0.489786 2.785653 0.316584 0.807184 4.540566 0.528924 3.507038 17.786671 2.516711 1.546062 13.198913 0.158589 2.792069 -11.368330 -0.265851 -5.478295 -1.548611 -3.576280 -1.638267 0.984930 5.619932 -113.176221 -80.744135 132.150307 0.261350 2.982055 -3.865682 -2.987138 0.155570 0.145187 5.961242 -0.790047 2.443451 126.997546 -74.144758 -149.351600 -5.140348 1.385498 8.092995 -3.318602 -44.817033 4.397986 142.290564 85.746201 145.910331 -4.419826 -11.723136 -1.860481 0.548827 -0.452172 0.141284 1.813180 -40.634692 5.997880 70.148196 82.492462 58.911825 -7.940753 -12.498423 9.739297 0.581467 2.176344 0.376892
9.258071 52.609439 39.798456 171.938866 -36.531557 -1.134033 3.997448 20.789530 1.391638 0.504031 2.788153 0.321896 0.818593 4.546468 0.526607 3.548786 17.792976 2.510742 1.544771 13.223031 0.164411 2.776660 -11.277316 -0.236099 -5.456126 -1.575359 -3.535445 -1.648064 0.996501 5.552552 -113.229504 -80.713703 132.189038 0.343654 2.965654 -3.836096 -3.013832 0.228629 0.150523 5.947844 -0.831810 2.422348 127.641754 -74.128682 -150.044506 -5.286412 1.309569 8.512291 -3.302089 -44.805794 4.469784 142.240533 85.761293 145.828897 -4.405311 -11.695400 -1.874683 0.546907 -0.469517 0.170462 1.896219 -40.610785 6.046276 70.008383 82.507202 58.755504 -7.922546 -12.448694 9.742467 0.581416 2.111905 0.352209
9.279558 52.606719 39.805180 171.856991 -36.550287 -1.113319 4.066177 20.805211 1.412944 0.505929 2.791680 0.309120 0.838214 4.552772 0.536958 3.587834 17.797514 2.504755 1.519331 13.221671 0.185606 2.767869 -11.202349 -0.217693 -5.405311 -1.615058 -3.488714 -1.708591 1.030014 5.493744 -113.296190 -80.702383 132.261739 0.355144 2.955217 -3.849125 -3.055484 0.233225 0.176669 5.944101 -0.797023 2.385133 128.362861 -74.133281 -150.815519 -5.418912 1.161748 8.981862 -3.295787 -44.783051 4.541536 142.187623 85.780713 145.771706 -4.389065 -11.665819 -1.889077 0.536166 -0.488100 0.177399 1.909073 -40.576872 6.146589 69.864695 82.532794 58.573868 -7.934581 -12.423155 9.736785 0.579894 2.069761 0.339766
9.305315 52.607991 39.805327 171.730614 -36.612969 -1.095379 4.188661 20.861505 1.474763 0.498604 2.783634 0.296458 0.853138 4.564123 0.538259 3.629773 17.797467 2.501536 1.513944 13.243797 0.193189 2.745479 -11.157181 -0.176770 -5.359178 -1.658816 -3.442721 -1.780658 1.076178 5.461103 -113.544034 -80.786335 132.625024 0.292778 2.917757 -3.949148 -3.092116 0.245939 0.202493 5.937397 -0.782657 2.362599 128.959528 -74.145782 -151.459026 -5.531466 0.919822 9.514819 -3.274988 -44.718997 4.649902 141.959751 85.785976 145.541614 -4.372469 -11.611825 -1.897450 0.502253 -0.529794 0.170514 1.924297 -40.503132 6.287197 69.809809 82.562338 58.477208 -7.896130 -12.367055 9.746506 0.529221 1.992832 0.320693
9.325531 52.603133 39.811020 171.674306 -36.617911 -1.102855 4.232101 20.853907 1.499837 0.500656 2.777347 0.290094 0.868582 4.571197 0.540128 3.698157 17.772329 2.464937 1.497919 13.296454 0.247494 2.735378 -11.094081 -0.130571 -5.390076 -1.643487 -3.365530 -1.759614 1.099625 5.409929 -113.661545 -80.798586 132.775089 0.319678 2.911177 -3.992798 -3.172489 0.304321 0.278627 5.955008 -0.796883 2.347528 129.385296 -74.156089 -151.932082 -5.640976 0.583148 10.105542 -3.311737 -44.711518 4.761051 141.879812 85.799035 145.438621 -4.385389 -11.570532 -1.901150 0.492819 -0.556979 0.169349 1.846156 -40.477294 6.448195 69.648000 82.602462 58.234114 -7.939552 -12.361109 9.742730 0.594693 1.980304 0.324511
